<svg xmlns="http://www.w3.org/2000/svg" viewBox="0 0 158 92.8"><style>.st6{fill:#fff}.st109{fill:#231f20}.st169{fill:#5fd37d}.st170{fill:#ee4d7a}</style><g id="Layer_1"><path class="st169" d="M85.7 20.1c-.7-.2-1.4-.4-2.3-.4-.8 0-1.6.1-2.3.4-.9.4-1.7.9-2.4 1.6-.6.7-1.1 1.4-1.5 2.2-.3.8-.5 1.7-.5 2.6 0 .9.2 1.8.6 2.7.4.9.9 1.6 1.6 2.2.7.6 1.4 1.1 2.2 1.4.8.3 1.6.5 2.5.6.9.1-1.3-1.8-.6-2.1.6-.3 1.2-.7 1.8-1.2.6-.5 1-1.1 1.4-1.7.3-.7-.6-2.4.1-2.7 2.2 1.1 4.3 2.3 6.4 3.5.7.4 1.1 1 1.3 1.7.2.6.2 1.2 0 1.6-.2.5-.3.8-.4 1.1-.1.1-.2.4-.4.8s-.6.8-1 1.3-1 1-1.7 1.5-1.5.9-2.5 1.3c-1.4.5-2.8.8-4.3.6-1.5-.1-2.9-.5-4.3-1.1-1.3-.7-8.5-3.6-8.5-3.5-1.3-1.1 2.3-1.6 1.5-3.2-.8-1.6-4.7-4.4-4.8-6-.1-1.7.1-3.3.7-4.9.6-1.6 1.5-3 2.7-4.3 1.2-1.3 6.3-1 8-1.6 1.2-.5 2.3-.7 3.3-.8 1-.1-2.1-2.5-1.3-2.5 0 0 6.6 3.1 6.7 3.2.3.2.7.4 1.2.6.4.3.7.7.9 1.4.2.8.2 1.5-.2 2.2-.4.7-.9 1.2-1.7 1.4-.8.4-1.5.4-2.2.1z"/><path class="st109" d="M83.8 39.8c-1.5-.1-3-.5-4.5-1.1-1.4-.7-8.5-3.6-8.5-3.5-.1 0-.1-.1-.2-.1l-.4-.4c-.2-.4-.1-.8.1-1l.6-.6c.4-.3.9-.6 1.1-.9.1-.2.1-.2 0-.4-.3-.5-1.2-1.5-2.1-2.4-1-1-2-1.9-2.5-2.9-.2-.3-.3-.6-.3-.9-.1-1.8.1-3.5.7-5.1.6-1.6 1.5-3.1 2.8-4.5.2-.2.5-.4.8-.6 1.1-.5 2.5-.6 4-.7 1.4-.1 2.8-.2 3.4-.5 1-.4 2-.7 2.9-.8-.1-.2-.3-.4-.5-.5-.4-.4-.7-.7-.9-1.1 0-.1-.1-.2 0-.4 0-.2.2-.4.4-.4.2-.1.3 0 .4 0h.2s6.5 3 6.7 3.2c-.1.1-.1.2-.2.3.1-.1.1-.2.2-.3.4.2.8.4 1.2.7.6.4.9 1 1.1 1.7.3.9.2 1.8-.3 2.6-.4.8-1.1 1.4-2 1.7-.8.3-1.7.2-2.6-.1-.6-.2-1.3-.3-2.1-.3-.7 0-1.5.1-2.1.3-.9.4-1.6.9-2.2 1.5-.6.6-1 1.3-1.4 2.1-.3.7-.4 1.5-.4 2.4 0 .8.2 1.6.6 2.5.3.8.8 1.4 1.4 2 .6.6 1.3 1 2 1.3.5.2 1.1.4 1.7.5-.2-.2-.4-.6-.5-.8-.1-.1-.1-.3-.1-.6 0-.2.2-.5.4-.5h.1c.6-.2 1.1-.6 1.6-1.1.5-.5 1-1 1.3-1.5v-.7c-.1-.4-.2-.8-.2-1.3 0-.3.2-.7.6-.9h.4c2.2 1.1 4.3 2.3 6.4 3.5.8.4 1.3 1.2 1.6 2.1.2.7.2 1.4 0 2-.2.5-.3.9-.5 1.2-.1.2-.2.4-.5.8s-.6.9-1.1 1.4c-.5.5-1.1 1-1.7 1.5-.7.5-1.6 1-2.6 1.4-1.2.1-2.7.3-4.3.2zm-4.2-2.1c1.4.6 2.7.9 4.2 1 1.4.1 2.8-.1 4.2-.6 1-.4 1.7-.8 2.4-1.3s1.2-1 1.6-1.4c.4-.5.8-.9 1-1.2.2-.4.4-.7.4-.8.1-.2.3-.6.4-1 .1-.3.1-.7-.1-1.3-.2-.7-.5-1.1-1.1-1.4-1.9-1.1-3.9-2.2-5.9-3.3 0 .1 0 .2.1.4.1.5.3 1.2 0 1.9-.4.7-.9 1.3-1.5 1.8-.5.5-1.1.9-1.7 1.2.2.3.6.8.8 1.2 0 .1.1.2.1.4s-.2.4-.3.5c-.1.1-.2 0-.3 0-.9-.1-1.8-.3-2.6-.7-.9-.4-1.6-.9-2.4-1.5-.7-.6-1.3-1.4-1.7-2.4-.4-.9-.7-1.9-.7-2.9s.1-1.9.5-2.8c.3-.9.9-1.7 1.6-2.4.7-.7 1.5-1.3 2.5-1.7.8-.3 1.7-.4 2.5-.4.9 0 1.7.1 2.4.4-.1.2-.1.3-.2.5.1-.2.1-.3.2-.5.6.3 1.2.3 1.8.1.6-.2 1.1-.6 1.4-1.2.3-.6.4-1.1.2-1.8-.2-.6-.4-.9-.7-1.1-.4-.3-.8-.5-1.1-.6-.1 0-.2-.1-.4-.2s-.5-.2-.8-.4c-.6-.3-1.5-.7-2.3-1.1-.5-.2-1-.5-1.5-.7.2.2.3.4.4.6 0 .1.1.3 0 .5s-.3.4-.5.5c-.1 0-.1 0-.2.1-.9.1-2 .4-3.2.8-.9.3-2.3.4-3.7.5-1.4.1-2.8.3-3.6.6-.2.1-.4.2-.5.3-1.2 1.2-2 2.6-2.6 4.1-.5 1.5-.8 3.1-.7 4.7 0 .1.1.3.2.5.4.7 1.3 1.7 2.3 2.6.9 1 1.9 1.9 2.3 2.7.2.4.2.8.1 1.2-.1.3-.4.6-.6.8-.5.4-1 .7-1.2.9 1 .7 7.2 3.3 8.5 3.9z"/><path class="st6" d="M78.7 16.9c-.7-.2-1.5-.3-2.3-.3-.8 0-1.6.2-2.4.5-.9.5-1.7 1-2.4 1.8-.6.7-1.1 1.5-1.4 2.3-.3.8-.5 1.7-.4 2.6 0 .9.3 1.8.7 2.7.4.8 1 1.5 1.7 2.1.7.6 1.5 1 2.3 1.3.8.3 1.7.5 2.6.5.9 0 1.7-.1 2.5-.3.7-.3 1.3-.7 1.8-1.2.6-.5 1-1.1 1.4-1.7.3-.7.9-1.2 1.6-1.5.7-.3 1.4-.2 2.1.1.7.3 1.2.9 1.4 1.7.2.6.2 1.2.1 1.6-.1.5-.3.9-.4 1.1-.1.1-.2.4-.4.8s-.6.9-1 1.4c-.5.5-1 1-1.7 1.6-.7.5-1.5 1-2.5 1.5-1.4.6-2.9.9-4.5.9s-3.1-.3-4.5-.8c-1.5-.5-2.9-1.3-4.2-2.4-1.3-1.1-2.4-2.4-3.3-3.9-.9-1.5-1.4-3.2-1.5-4.9-.1-1.7.1-3.3.6-4.9.6-1.6 1.4-3.1 2.7-4.4 1.2-1.3 2.7-2.4 4.5-3.2 1.2-.5 2.4-.9 3.4-1 1-.2 2-.2 2.8-.2.8 0 1.4.1 1.9.3.5.1.8.2.9.3.4.1.8.3 1.2.6.5.3.8.7 1 1.3.3.8.2 1.5-.2 2.2-.4.7-.9 1.2-1.7 1.5-.8.3-1.6.3-2.4 0z"/><path class="st109" d="M77.4 36.9c-1.6 0-3.2-.3-4.7-.9-1.5-.6-3-1.4-4.3-2.5-1.4-1.1-2.5-2.5-3.4-4.1-.9-1.6-1.4-3.3-1.6-5.1-.1-1.8.1-3.5.6-5.1.6-1.7 1.5-3.2 2.8-4.6 1.3-1.4 2.9-2.5 4.7-3.3 1.3-.5 2.5-.9 3.6-1.1 1.1-.2 2-.2 2.9-.2.8 0 1.5.1 2 .3.5.1.8.2 1 .3.4.1.8.4 1.3.6.6.3 1 .9 1.2 1.6.3.9.2 1.8-.2 2.6s-1.1 1.5-2 1.8c-.9.3-1.8.3-2.6 0-.7-.2-1.4-.3-2.2-.2-.8 0-1.5.2-2.2.5-.9.4-1.6 1-2.2 1.6-.6.7-1 1.4-1.3 2.1-.3.8-.4 1.6-.4 2.4 0 .8.3 1.6.6 2.5.4.8.9 1.4 1.5 1.9.7.5 1.4.9 2.2 1.2.8.3 1.6.4 2.4.5.8 0 1.6-.1 2.3-.3.6-.3 1.1-.6 1.6-1.1.5-.5 1-1.1 1.3-1.6.4-.8 1-1.4 1.8-1.7.8-.3 1.7-.3 2.5.1s1.4 1.1 1.7 2c.2.7.3 1.4.1 2-.2.5-.3.9-.4 1.2-.1.2-.2.5-.5.9s-.6.9-1.1 1.5c-.5.5-1.1 1.1-1.8 1.6-.7.7-1.6 1.2-2.6 1.6-1.5.7-3 1-4.6 1zm-5.5-24.6c-1.7.7-3.1 1.7-4.3 3-1.2 1.3-2 2.7-2.6 4.2-.5 1.5-.7 3.1-.6 4.7.1 1.6.6 3.2 1.4 4.7.8 1.5 1.9 2.7 3.1 3.8 1.3 1 2.6 1.8 4 2.3 1.4.5 2.9.8 4.4.8 1.5 0 2.9-.3 4.3-.9 1-.4 1.8-.9 2.4-1.4.7-.5 1.2-1 1.6-1.5.4-.5.8-.9 1-1.3.2-.4.4-.7.4-.8.1-.2.3-.6.4-1.1.1-.3.1-.8-.1-1.3-.2-.7-.6-1.1-1.2-1.4-.6-.3-1.1-.3-1.7-.1-.6.2-1 .6-1.3 1.2-.4.7-.9 1.3-1.5 1.9-.6.6-1.3 1-2 1.3-.8.3-1.7.4-2.7.3-.9 0-1.8-.2-2.7-.5-.9-.3-1.7-.8-2.5-1.4-.8-.6-1.4-1.4-1.9-2.3-.5-.9-.7-1.9-.8-2.9-.1-1 .1-1.9.4-2.8.3-.9.9-1.7 1.5-2.5.7-.8 1.6-1.4 2.6-1.9.8-.3 1.7-.5 2.6-.5.9 0 1.7.1 2.5.3-.1.2-.1.3-.2.5.1-.2.1-.3.2-.5.7.2 1.3.2 1.9 0 .7-.2 1.1-.6 1.4-1.2.3-.6.3-1.2.1-1.8-.2-.6-.5-.9-.8-1.1-.4-.2-.8-.4-1.1-.5-.1 0-.5-.1-.9-.3-.4-.1-1-.2-1.8-.3-.7 0-1.6 0-2.6.2-.7.3-1.7.6-2.9 1.1z"/><path class="st170" d="M93.9 33.2c-2-1.2-4.1-2.4-6.2-3.6"/><path class="st109" d="M93.7 33.7c-2-1.2-4.1-2.4-6.2-3.5-.2-.1-.4-.5-.3-.7.1-.3.4-.4.7-.2 2.1 1.1 4.2 2.3 6.2 3.6.2.1.3.5.2.7-.1.1-.2.2-.3.2 0 0-.1 0-.3-.1z"/><path class="st170" d="M86 20.2c-2.2-1.1-4.5-2.2-6.9-3.2"/><path class="st109" d="M85.7 20.7c-2.2-1.1-4.5-2.2-6.9-3.1-.3-.1-.4-.4-.3-.7.1-.3.5-.4.7-.3 2.4 1 4.7 2.1 6.9 3.2.3.1.4.5.2.7l-.3.3c0-.1-.1-.1-.3-.1z"/><path class="st169" d="M98.1 19.1c2.2-.5 4.3-1 6.5-1.4-.4-2.3-.8-4.6-1.3-6.8-.1-.8-2.3-1.6-1.8-2.3.5-.7-1.1-4.9-.2-5.1 2.4 1.5 4.7 3 6.9 4.5.6.5 1 1.1 1.1 1.9l2.7 19.5c.1.8 0 1.5-.4 2.1-.4.6-.9 1-1.6 1.1-.7.1-1.3-.1-1.9-.5-.5-.5-6.1-4.8-6.2-4.8 1.2-1.3 2.5-2.7 3.8-4-2.1.4-4.2.8-6.2 1.3.5 2.3 1.1 4.5 1.6 6.8.2.8.1 1.5-.2 2.1-.3.6-.8 1.1-1.5 1.2-.7.2-1.3.1-1.9-.3-.6-.4-6.5-4.1-6.6-4-.3-5.5-.3-11.1-.1-16.6-.2-.8-3.1-1.3-2.7-2 .4-.7-.6-4.7.2-5 .1 0 6.7 3.5 6.9 3.7.5.3 1.1 1 1.3 1.8.5 2.3 1.1 4.5 1.6 6.8z"/><path class="st109" d="M110 33.2c-.8.1-1.5-.1-2.2-.6-.5-.5-6.1-4.8-6.2-4.8-.1-.1-.2-.2-.2-.4s0-.3.1-.4c.8-.9 1.7-1.8 2.6-2.7-1.4.3-2.7.6-4 .9l1.5 6.3c.2.9.1 1.8-.3 2.5-.4.8-1 1.3-1.8 1.5-.8.2-1.5.1-2.3-.4-.6-.5-6.5-4.1-6.6-4-.2-.1-.3-.3-.3-.5-.2-5.6-.3-11.1-.1-16.6 0 0-.1 0-.1-.1-.1-.1-.3-.2-.5-.3-.4-.2-.9-.4-1.4-.6-.3-.2-.6-.3-.7-.7-.1-.2 0-.5.1-.6v-.6c0-.4-.1-.8-.1-1.3-.1-1-.2-2 0-2.7.1-.2.3-.5.6-.6h.4s6.7 3.5 6.9 3.7c.7.4 1.3 1.1 1.6 2.1.5 2.1 1 4.2 1.5 6.2 1.8-.4 3.7-.8 5.5-1.2l-1.2-6.3s0-.1-.2-.3c-.1-.1-.3-.3-.6-.5-.4-.4-1-.6-1.2-1.3 0-.2 0-.5.1-.6v-.5c0-.3-.1-.7-.2-1.2-.1-.3-.1-.6-.2-.9-.1-.9-.3-1.6-.1-2.2.1-.2.3-.5.7-.6.2 0 .3 0 .4.1 2.4 1.5 4.7 3 6.9 4.5.8.5 1.2 1.3 1.3 2.2.9 6.5 1.7 13 2.6 19.5.1.9-.1 1.8-.5 2.5-.3.9-1 1.3-1.8 1.5zm-1.7-1.5c.5.4 1 .5 1.6.4.6-.1 1-.4 1.3-.9.3-.5.4-1 .3-1.7-.9-6.5-1.8-13-2.8-19.5-.1-.7-.4-1.2-.9-1.5-2-1.4-4.1-2.8-6.2-4.1 0 .3.1.8.2 1.2.1.3.1.6.2.9.1.5.2.9.2 1.3s.1.6-.1 1c0 0 .1.1.1.2.1.1.4.3.6.5.4.4 1 .7 1.1 1.4.4 2.3.8 4.6 1.2 6.8 0 .1 0 .3-.1.4-.1.1-.2.2-.3.2-2.2.4-4.4.9-6.5 1.4-.1 0-.3 0-.4-.1-.1-.1-.2-.2-.2-.3-.6-2.3-1.1-4.6-1.6-6.8-.1-.6-.7-1.2-1.1-1.4-.1-.1-4.7-2.6-6.3-3.4v.7c0 .8.1 1.7.2 2.4 0 .4 0 .8-.1 1.1.1.1.3.2.5.3.4.2 1 .4 1.4.7.3.2.6.4.7.8v.2c-.2 5.5-.2 10.9.1 16.3 1.2.7 5.8 3.5 6.3 3.9.5.3 1 .4 1.6.3.6-.2.9-.5 1.2-1 .3-.5.3-1.1.2-1.7-.6-2.3-1.1-4.5-1.6-6.8 0-.1 0-.3.1-.4.1-.1.2-.2.3-.2 2.1-.5 4.2-.9 6.3-1.3.2 0 .4.1.5.3.1.2.1.5-.1.6-1.2 1.1-2.3 2.3-3.4 3.5 1.3.9 5.1 3.9 5.5 4.3z"/><path class="st6" d="M91.6 15.3c2.2-.6 4.5-1.2 6.7-1.7-.5-2.3-1-4.5-1.5-6.8-.2-.8 0-1.5.5-2.2.5-.7 1.2-1.1 2-1.3.9-.2 1.7-.1 2.4.4.7.4 1.1 1 1.2 1.8 1.2 6.5 2.3 12.9 3.5 19.4.1.8 0 1.5-.4 2.1-.4.6-.9 1-1.7 1.2-.7.1-1.4 0-2-.4-.6-.4-1-1-1.2-1.8-.5-2.3-1-4.5-1.5-6.8-2.2.5-4.3 1-6.4 1.6.6 2.2 1.3 4.5 1.9 6.7.2.8.2 1.5-.2 2.2-.3.7-.8 1.1-1.5 1.3-.7.2-1.4.1-2-.2-.7-.4-1.1-.9-1.4-1.7-2.1-6.2-4.2-12.5-6.2-18.7-.3-.8-.2-1.5.2-2.2.4-.7 1.1-1.2 1.9-1.5.8-.3 1.6-.2 2.4.1.7.4 1.2.9 1.4 1.7.6 2.3 1.3 4.5 1.9 6.8z"/><path class="st109" d="M104.5 28.7c-.8.2-1.6 0-2.3-.5-.7-.5-1.2-1.2-1.4-2.1l-1.5-6.3c-1.8.4-3.6.9-5.4 1.4.6 2.1 1.2 4.1 1.7 6.2.3.9.2 1.8-.2 2.6s-1 1.3-1.8 1.6c-.8.2-1.6.2-2.4-.3-.8-.4-1.3-1.1-1.6-2-2.1-6.2-4.2-12.5-6.3-18.7-.4-.9-.3-1.8.2-2.6s1.3-1.4 2.2-1.7c1-.3 2-.2 2.8.2.9.4 1.4 1.1 1.7 2 .6 2.1 1.1 4.1 1.7 6.2l5.7-1.5c-.5-2.1-1-4.2-1.4-6.2-.2-.9 0-1.8.5-2.6.6-.8 1.4-1.3 2.4-1.5 1-.2 2-.1 2.8.5.8.5 1.3 1.3 1.5 2.2 1.1 6.5 2.3 12.9 3.4 19.4.2.9 0 1.8-.5 2.5-.3.6-1 1.1-1.8 1.2zm-5-10c.1 0 .3 0 .4.1.1.1.2.2.2.3.5 2.3 1 4.5 1.5 6.8.2.7.5 1.1 1 1.5.5.4 1 .5 1.6.3.6-.1 1-.4 1.4-.9.3-.5.4-1.1.3-1.7-1.2-6.5-2.4-12.9-3.6-19.4-.1-.7-.4-1.1-1-1.5-.6-.3-1.2-.4-1.9-.3-.7.2-1.3.5-1.7 1-.4.6-.5 1.1-.4 1.8.5 2.3 1 4.5 1.5 6.8 0 .1 0 .3-.1.4-.1.1-.2.2-.3.2-2.3.5-4.5 1.1-6.7 1.7h-.4l-.3-.3c-.6-2.2-1.3-4.4-1.9-6.7-.1-.7-.5-1.1-1.1-1.4-.6-.3-1.2-.3-1.9-.1-.7.2-1.2.6-1.5 1.2-.3.6-.4 1.1-.2 1.8 2.1 6.2 4.1 12.5 6.2 18.7.2.6.6 1.1 1.1 1.4.6.3 1.1.4 1.7.2.6-.2 1-.5 1.2-1.1.3-.6.3-1.1.1-1.8-.6-2.2-1.3-4.5-1.9-6.7v-.4l.3-.3c2.1-.6 4.2-1.1 6.4-1.6z"/><path class="st170" d="M99.5 24.7c-2-1.3-4.1-2.6-6.3-3.9"/><path class="st109" d="M99.2 25.2c-2-1.3-4.1-2.6-6.3-3.9-.3-.1-.3-.5-.2-.7.1-.3.5-.3.7-.2 2.2 1.2 4.2 2.5 6.3 3.9.2.2.3.5.2.7-.1.1-.2.2-.3.2-.1.1-.3 0-.4 0z"/><path class="st170" d="M112 30.1c-1.8-1.6-3.6-3.1-5.6-4.5"/><path class="st109" d="M111.8 30.5c-1.8-1.5-3.6-3-5.6-4.5-.2-.2-.3-.5-.1-.7.2-.2.5-.3.7-.1 1.9 1.5 3.8 3 5.6 4.5.2.2.3.5.1.7-.1.1-.2.2-.3.2-.2 0-.3 0-.4-.1z"/><g><path class="st170" d="M101.2 32.1c-1.9-1.4-3.9-2.7-6-4"/><path class="st109" d="M100.9 32.5c-1.9-1.4-3.9-2.7-6-3.9-.2-.1-.3-.5-.2-.7.1-.3.4-.3.7-.2 2.1 1.3 4 2.6 6 4 .2.2.3.5.2.7-.1.1-.2.2-.3.2-.1.1-.3 0-.4-.1z"/></g><g><path class="st169" d="M130 28.5c0 .8-.3 1.5-.8 2s-1.1.8-1.9.8c-.6 0-1.1-.2-1.6-.6-.2-.2-5.1-5.3-5.1-5.3-.3.5-.6 1.1-.9 1.6-.4.9-.8 1.7-1.1 2.3-.3.6-.6 1.1-.8 1.5-.3.4-.5.6-.8.8-.3.2-.5.3-.8.3-.7.1-1.3-.1-1.8-.6s-.8-1.1-.9-2c0-.2 0-.5.1-.9.1-.3.2-.6.2-.7.7-5.3 1.7-10.5 2.8-15.8.3-.6 5.9-5.8 6.6-6.2.6-.4-.1-4.7.7-4.7.1 0 5.7 5 6.1 5.5.4.5.7 1.1.6 1.8-.3 6.7-.5 13.4-.6 20.2zm-8.1-7.2c.9 0 1.8-.1 2.7-.1 0-1.4-.1-2.8-.1-4.3-.9 1.5-1.8 3-2.6 4.4z"/><path class="st109" d="M114 31.7c-.6-.6-1-1.4-1.1-2.3 0-.3 0-.7.1-1.1.1-.3.1-.6.2-.7.7-5.2 1.6-10.5 2.7-15.7 0 0 0-.1.1-.1.1-.2.4-.5.7-.9.4-.4.8-.9 1.4-1.4 1.1-1 2.4-2.2 3.3-3 .6-.5 1-.8 1.3-1 0-.1 0-.2.1-.4V3.8c0-1-.1-2 .2-2.6.1-.2.3-.5.8-.5.2 0 .3 0 .4.1.1 0 5.7 5 6.1 5.6.5.6.8 1.3.8 2.1l-.6 20.1c0 1-.4 1.8-1 2.4-.6.6-1.3.9-2.2.9-.7 0-1.3-.2-1.9-.7l-.3-.3-.6-.6c-.5-.5-1.1-1.2-1.7-1.8l-2.1-2.1c-.2.3-.4.7-.6 1-.4.9-.8 1.7-1.1 2.3-.3.6-.6 1.1-.9 1.5-.3.4-.6.7-.9.9-.3.2-.7.3-1 .4-.8-.1-1.5-.3-2.2-.8zm13.3-1c.6 0 1.1-.2 1.5-.6.4-.4.6-.9.6-1.7.1-6.7.3-13.4.4-20.1 0-.6-.2-1-.5-1.4-.3-.4-3.9-3.7-5.4-5v.9c0 1 .1 2-.1 2.7-.1.2-.1.4-.4.6-.1.1-1.2.9-2.3 1.9-1.1 1-2.4 2.2-3.2 3-.5.5-.8.9-.9 1-1.1 5.2-2.1 10.5-2.8 15.7v.2c0 .1-.1.3-.2.6s-.1.5-.1.7c.1.7.3 1.2.8 1.6.4.4.9.5 1.5.5.2 0 .5-.1.7-.2.2-.1.4-.3.6-.7.2-.3.5-.8.8-1.4.3-.6.6-1.4 1.1-2.3.3-.5.6-1.1.9-1.6.1-.1.2-.2.3-.2.1 0 .3 0 .4.1l2.4 2.4c1.2 1.3 2.5 2.6 2.7 2.8.3.4.7.5 1.2.5zm-5.4-8.8c-.2 0-.4-.1-.5-.3-.1-.2-.1-.4 0-.5.8-1.5 1.7-2.9 2.6-4.4.1-.2.4-.3.6-.2.2.1.4.3.4.5 0 1.4.1 2.8.1 4.3 0 .1 0 .3-.1.4-.1.1-.2.2-.4.2-.9-.1-1.8-.1-2.7 0zm2.2-1.2c0-.7 0-1.3-.1-2-.4.7-.8 1.3-1.2 2h1.3z"/><path class="st169" d="M114.3 31.2c-1.7-1.6-3.6-3.1-5.4-4.6 1.7-1.6 3.5-3.1 5.4-4.5 1.9 1.6 3.6 3.2 5.4 4.9-.4.9-.8 1.7-1.1 2.3-.3.6-.6 1.1-.8 1.5-.3.4-.5.6-.8.8-.3.2-.5.3-.8.3-.8 0-1.4-.2-1.9-.7"/><path class="st109" d="M114.1 31.7s-.1 0 0 0c-1.8-1.6-3.6-3.1-5.4-4.6-.1-.1-.2-.3-.2-.4 0-.2.1-.3.2-.4 1.7-1.6 3.5-3.1 5.4-4.5.2-.1.4-.1.6 0 1.9 1.6 3.6 3.2 5.4 4.9.2.2.2.4.1.6-.4.9-.8 1.7-1.1 2.3-.3.6-.6 1.1-.9 1.5-.3.4-.6.7-.9.9-.3.2-.7.3-1 .4-.9 0-1.6-.2-2.2-.7zm2-.4c.2 0 .5-.1.7-.2.2-.1.4-.3.6-.7.2-.3.5-.8.8-1.4.3-.5.5-1.2.9-1.9-1.5-1.5-3.1-2.9-4.8-4.3-1.6 1.3-3.1 2.5-4.6 3.8 1.7 1.4 3.3 2.8 4.9 4.2.4.4.9.6 1.5.5z"/><path class="st169" d="M119.7 27c.8-.1 1.6-.1 2.4-.1-.8-1.7-1.6-3.5-2.5-5.2-1.8.1-3.5.3-5.3.5 1.9 1.5 3.6 3.1 5.4 4.8z"/><path class="st109" d="M119.7 27.5V27c.1-.1.2-.3.3-.4-.1.1-.2.3-.3.4v.5c-.1 0-.3 0-.3-.1-1.7-1.7-3.5-3.3-5.4-4.9-.2-.1-.2-.4-.2-.6.1-.2.2-.4.4-.4 1.8-.2 3.5-.3 5.3-.5.2 0 .4.1.5.3.9 1.7 1.7 3.5 2.5 5.2.1.2.1.4 0 .5-.1.2-.2.3-.4.3-.8.1-1.6.1-2.4.2zm.1-1.1c.5 0 1-.1 1.5-.1-.7-1.4-1.3-2.8-2-4.2-1.2.1-2.5.2-3.7.3 1.4 1.4 2.8 2.7 4.2 4z"/><path class="st6" d="M125.1 23.1c0 .8-.2 1.5-.7 2.1-.5.5-1.1.8-1.9.9-.6 0-1.2-.1-1.7-.5s-.8-.9-.9-1.6c-.1-.8-.2-1.6-.2-2.3-1.8.1-3.5.3-5.3.5-.4.9-.7 1.7-1 2.3-.3.6-.6 1.1-.8 1.5-.2.4-.5.7-.8.8-.3.2-.5.3-.9.3-.7.1-1.4-.1-1.9-.5-.6-.4-.9-1.1-1.1-1.9 0-.2 0-.5.1-.9s.1-.6.2-.7c2.8-6.9 6.3-13.7 10.5-20.3.4-.6.9-1.1 1.5-1.5.6-.4 1.3-.6 2.1-.6.7 0 1.3.2 1.8.6.5.4.7 1 .7 1.7l.3 20.1zm-8.7-6.8c.9-.1 1.9-.2 2.8-.2l-.3-4.2c-.8 1.5-1.7 2.9-2.5 4.4z"/><path class="st109" d="M108.6 27c-.7-.5-1.1-1.3-1.3-2.3-.1-.3 0-.7.1-1.1.1-.4.2-.6.2-.8 2.8-6.9 6.3-13.7 10.4-20.4.4-.7 1-1.2 1.7-1.7.7-.4 1.5-.7 2.4-.7.9 0 1.7.2 2.2.8.6.5.9 1.3.9 2.1l.3 20.1c0 1-.3 1.8-.9 2.5-.6.6-1.4 1-2.2 1-.7 0-1.4-.2-2-.6-.6-.4-1.1-1.1-1.2-1.9-.1-.6-.1-1.2-.2-1.8-1.5.1-3 .2-4.5.4-.4.8-.7 1.5-.9 2.1l-.8 1.6c-.3.4-.6.7-.9 1-.3.2-.7.4-1.1.4-.7.1-1.5-.1-2.2-.7zm10.9-5.9c.3 0 .5.2.5.5.1.8.2 1.5.2 2.3.1.5.3.9.7 1.2.5.3.9.5 1.5.4.7 0 1.2-.3 1.6-.7.4-.4.6-1 .6-1.7-.1-6.7-.3-13.4-.4-20.1 0-.6-.2-1-.6-1.4-.4-.3-.8-.5-1.4-.5-.7 0-1.3.2-1.8.5-.6.3-1 .8-1.3 1.3-4.2 6.6-7.7 13.4-10.5 20.3 0 .1-.1.3-.2.7-.1.3-.1.5-.1.7.1.7.4 1.2.8 1.6.5.4 1 .5 1.6.4.3 0 .5-.1.7-.3.2-.1.4-.4.6-.7.2-.3.5-.8.8-1.4.3-.6.6-1.4 1-2.3.1-.2.2-.3.4-.3 1.8-.3 3.6-.4 5.3-.5zm-3.1-4.2c-.2 0-.4-.1-.5-.2-.1-.2-.1-.4 0-.5.8-1.5 1.6-3 2.5-4.5.1-.2.4-.3.6-.3.2.1.4.3.4.5.1 1.4.2 2.8.3 4.3 0 .1 0 .3-.1.4-.1.1-.2.2-.4.2-.9-.1-1.8 0-2.8.1zm2.2-1.3c0-.7-.1-1.3-.1-2l-1.2 2.1c.5 0 .9 0 1.3-.1z"/><g><path class="st170" d="M129.6 29.8c-1.5-1.8-3.1-3.6-4.8-5.3"/><path class="st109" d="M129.3 30.2c-1.5-1.8-3.1-3.6-4.8-5.3-.2-.2-.2-.5 0-.8.2-.2.5-.2.7 0 1.7 1.8 3.3 3.5 4.8 5.4.2.2.2.6 0 .8-.1.1-.2.2-.3.1-.2 0-.3-.1-.4-.2z"/></g></g><g><path class="st169" d="M137.5 12.1c-.8-.1-1.7-.1-2.5-.2-.4 0-.7-.1-1.1-.3-.3-.2-.6-.4-.9-.7-.2-.3-5-5.1-5.1-5.1 0 0 4-4.3 4.6-.6.1.4-.3 3-.1 2.6.2-.4.4-.7.7-.9.3-.3.6-.5 1-.6.4-.1.7-.2 1.1-.2 1.7-.6 3.4-1.2 5.2-1.8.4 0 3.3-1.9 3.3-1.9.1 0 4.9 5.8 5.1 6.1.2.3.4.7.5 1.1.1.4.1.8.1 1.2-.1.3-.2.6-.4.9-.2.3-.5.6-.8.8-.3.2-.7.4-1.1.5-.4.1-.8.1-1.1.1-.9-.1-1.7-.2-2.6-.4-.7 5.5-1.4 11.1-2.1 16.6-.1.8-.4 1.5-1 1.9-.6.4-1.2.6-1.9.5-.7-.1-1.3-.4-1.7-.9-.4-.6-4.4-5.7-4.5-5.6 1.6-4.4 3.4-8.8 5.3-13.1z"/><path class="st109" d="M138.4 32.2c-.8-.1-1.5-.4-2-1.1-.4-.6-4.4-5.7-4.5-5.7-.1-.1-.2-.4-.1-.5 1.5-4.2 3.1-8.3 4.9-12.4-.6 0-1.2-.1-1.8-.1-.5 0-.9-.2-1.3-.4s-.7-.5-1-.8c-.2-.3-5-5.1-5.1-5.1-.2-.2-.2-.5 0-.7 0 0 .5-.6 1.2-1.1.7-.6 1.6-1.2 2.6-1.2.9 0 1.7.8 1.8 1.9v.4c0 .2 0 .5-.1.8.3-.2.6-.3.9-.5.4-.1.8-.2 1.2-.2l5.1-1.8h.2c.1 0 .2-.1.4-.2.3-.2.7-.4 1.1-.6.8-.5 1.5-1 1.5-1 .3-.2.6-.1.8.1.1 0 4.9 5.8 5.1 6.1.3.4.5.8.6 1.2.1.5.1.9.1 1.4-.1.4-.3.8-.5 1.2-.3.4-.6.7-1 .9-.4.3-.8.4-1.2.6-.5.1-.9.2-1.4.1-.7-.1-1.3-.2-2-.3-.7 5.4-1.4 10.7-2.1 16.1-.1 1-.5 1.8-1.2 2.3-.6.5-1.4.7-2.2.6.1.1.1.1 0 0 0 .1 0 0 0 0zm-3.7-4.8c1.1 1.3 2.2 2.8 2.3 3 .4.4.8.7 1.5.8.6.1 1.1-.1 1.6-.4.4-.3.7-.8.8-1.5.7-5.5 1.4-11.1 2-16.6 0-.1.1-.3.2-.4.1-.1.3-.1.4-.1.9.1 1.7.2 2.6.4.3 0 .6 0 .9-.1.3-.1.6-.2.9-.4.3-.2.5-.4.7-.7.2-.2.3-.5.3-.7.1-.3 0-.6 0-1-.1-.3-.2-.6-.4-.9-.2-.3-3.6-4.4-4.7-5.7-.7.4-2 1.3-2.7 1.6-.1 0-.2.1-.4.1l-5.1 1.8h-.3c-.3 0-.6 0-.9.1-.3.1-.6.3-.8.5-.2.2-.4.5-.6.8 0 0 0 .1-.1.1-.1.1-.2.2-.5.2s-.4-.2-.5-.2c-.1-.1-.1-.1-.1-.2v-.5c0-.5.1-1.6.1-2.1v-.2c-.2-1-.4-1-.7-1-.4 0-1.2.4-1.9.9-.3.2-.6.5-.7.6 1.2 1.1 4.5 4.5 4.7 4.8.2.2.5.4.8.6.3.1.5.2.8.2.8.1 1.7.1 2.5.2.2 0 .3.1.4.3.1.1.1.3 0 .5-1.9 4.2-3.6 8.5-5.2 12.8.6.5 1.4 1.4 2.1 2.4z"/><path class="st6" d="M132.2 6.4c-.9 0-1.7-.1-2.6-.1-.4 0-.8-.1-1.1-.3-.4-.2-.7-.4-1-.7-.3-.3-.5-.6-.7-.9-.2-.3-.3-.7-.3-1 0-.4.1-.8.3-1.2.2-.4.4-.7.7-1 .3-.3.6-.5 1-.6.4-.2.8-.2 1.2-.2 4 .1 8 .3 12 .7.4 0 .8.2 1.2.4.4.2.7.5 1 .8.3.3.5.6.6 1 .1.4.2.8.1 1.2 0 .3-.2.7-.4 1-.2.3-.5.6-.8.8-.3.2-.7.4-1.1.5-.4.1-.8.2-1.2.1l-2.7-.3c-.5 5.6-.9 11.1-1.4 16.7-.1.8-.4 1.5-.9 1.9-.6.4-1.2.7-1.9.6-.7 0-1.4-.3-1.9-.8s-.7-1.2-.7-2c.2-5.4.4-11 .6-16.6z"/><path class="st109" d="M134.1 26.5c-.8 0-1.6-.4-2.2-1-.6-.6-.9-1.5-.9-2.5.2-5.4.4-10.8.5-16.2-.7 0-1.4 0-2-.1-.5 0-.9-.1-1.4-.3-.4-.2-.8-.5-1.1-.8-.3-.3-.6-.7-.8-1.1-.2-.4-.3-.8-.3-1.2 0-.5.1-.9.3-1.4.2-.4.5-.8.8-1.1.3-.3.7-.6 1.2-.7.4-.2.9-.3 1.4-.3 4 .1 8 .3 12.1.7.5 0 1 .2 1.4.4.4.2.8.5 1.1.9.3.4.6.8.7 1.2.2.5.2.9.1 1.4-.1.4-.2.8-.5 1.2-.3.4-.6.7-.9.9-.4.3-.8.5-1.2.6-.5.1-.9.2-1.4.2-.7-.1-1.4-.1-2.1-.2-.5 5.4-.9 10.8-1.4 16.1-.1 1-.5 1.8-1.2 2.3-.6.8-1.4 1.1-2.2 1zM132.6 6c.1.1.2.2.2.4-.2 5.6-.5 11.1-.7 16.7 0 .7.2 1.2.6 1.6.4.4.9.6 1.6.7.6 0 1.1-.1 1.6-.5.4-.4.7-.8.7-1.6.4-5.6.9-11.1 1.3-16.7 0-.1.1-.3.2-.4.1-.1.3-.1.4-.1l2.7.3c.3 0 .6 0 .9-.1.3-.1.6-.3.9-.5.3-.2.5-.4.7-.7.2-.3.3-.5.3-.7 0-.3 0-.6-.1-1-.1-.3-.3-.6-.5-.9-.2-.3-.5-.5-.8-.6-.3-.2-.6-.3-.9-.3-4-.4-8-.7-12-.7-.3 0-.6 0-.9.2-.3.1-.6.3-.8.5-.2.2-.4.5-.6.8-.1.3-.2.6-.2.9 0 .3.1.5.2.8.1.3.3.5.6.8.2.2.5.4.8.6.3.1.6.2.9.2.9 0 1.8 0 2.6.1 0 .1.2.1.3.2z"/><path class="st170" d="M143.5 12.7c-1.6-2-3.3-4-5.1-5.9"/><path class="st109" d="M143 13c-1.6-2-3.3-4-5.1-5.9-.2-.2-.2-.6.1-.8.2-.2.6-.2.8.1 1.8 1.9 3.5 3.9 5.1 5.9.2.2.1.6-.1.7-.1.1-.3.1-.4.1-.1.1-.3 0-.4-.1z"/><g><path class="st170" d="M141.2 30.1c-1.4-2-2.8-3.9-4.3-5.8"/><path class="st109" d="M140.8 30.4c-1.4-2-2.8-3.9-4.3-5.8-.2-.2-.2-.6.1-.8.2-.2.5-.2.7.1 1.5 1.9 3 3.9 4.3 5.8.2.2.1.6-.1.7-.1.1-.2.1-.4.1-.1.1-.2 0-.3-.1z"/></g></g><g><path class="st169" d="M150 8.1c.7-.4 1.2-4.6 2.1-4.4 1.7 2.1 3.3 4.3 4.8 6.4.5.7.6 1.4.4 2.2l-2.7 11.4c-.2.8-.6 1.4-1.3 1.8-.6.4-1.4.5-2.1.4-.8-.2-1.3-.6-1.8-1.2-1.4-2.2-2.9-4.4-4.5-6.5 2-2.4 4-4.8 6.2-7.1.3-.9-1.8-2.6-1.1-3z"/><path class="st109" d="M151.2 26.3c-.9-.2-1.6-.7-2.1-1.4-1.4-2.2-2.9-4.4-4.5-6.5-.1-.2-.1-.4-.1-.5 1.9-2.4 4-4.7 6.1-7v-.1c-.1-.1-.1-.3-.3-.5-.2-.4-.5-.8-.8-1.1-.1-.3-.3-.5-.2-.9 0-.2.2-.4.4-.5l.1-.1c.1-.1.1-.2.2-.4.1-.3.3-.8.4-1.3.3-1 .5-1.9 1-2.5.2-.2.5-.4.9-.3.2 0 .3.1.4.2 1.7 2.1 3.3 4.3 4.8 6.4.6.8.7 1.7.5 2.6l-2.7 11.4c-.2.9-.7 1.6-1.5 2.1-.9.5-1.7.6-2.6.4zm-.6-17.7c.1.2.3.4.5.7.3.5.8 1 .7 1.8 0 0 0 .1-.1.1-2.1 2.2-4.2 4.5-6.1 6.8 1.5 2.1 3 4.2 4.3 6.3.4.5.8.8 1.5 1 .7.1 1.2 0 1.7-.3.5-.4.9-.8 1-1.5.9-3.8 1.7-7.6 2.6-11.4.1-.7 0-1.2-.4-1.8-1.4-2-2.8-3.9-4.4-5.9-.1.2-.2.4-.2.6-.2.7-.5 1.6-.7 2.3-.2.4-.3.8-.6 1.1l.2.2zm-.4-.3c-.1-.1-.1-.2-.2-.3.1.1.2.2.2.3z"/><path class="st6" d="M147.5 2.9c.7-.4 1.5-.6 2.4-.5.9.2 1.7.6 2.2 1.2.5.7.7 1.4.6 2.2-.7 3.8-1.4 7.7-2.2 11.5-.1.8-.6 1.4-1.2 1.8-.6.4-1.4.6-2.2.5-.8-.1-1.4-.5-1.9-1.1-.5-.6-.7-1.3-.6-2.1.5-3.9 1.1-7.7 1.6-11.6.2-.8.6-1.5 1.3-1.9z"/><path class="st109" d="M147 20.1c-.9-.1-1.7-.6-2.2-1.3-.6-.7-.8-1.6-.7-2.5.5-3.9 1-7.7 1.6-11.6.1-.9.6-1.7 1.5-2.2.8-.5 1.8-.7 2.9-.5 1.1.2 2 .7 2.6 1.4.6.8.8 1.7.7 2.6-.7 3.8-1.5 7.7-2.2 11.5-.2.9-.7 1.7-1.4 2.2-.9.4-1.8.6-2.8.4.1 0 .1 0 0 0zm-.1-15.3c-.6 3.9-1.1 7.7-1.7 11.6-.1.7.1 1.2.4 1.7.4.5.9.8 1.6.9.7.1 1.2 0 1.8-.4.5-.4.8-.8 1-1.5.7-3.8 1.4-7.7 2.1-11.5.1-.7 0-1.2-.5-1.8-.4-.5-1-.8-1.8-1-.8-.1-1.4 0-2 .4-.5.5-.8 1-.9 1.6z"/><path class="st170" d="M154.5 24.2c-1.3-2.1-2.7-4.2-4.1-6.3"/><path class="st109" d="M154 24.5c-1.3-2.1-2.7-4.2-4.1-6.3-.2-.2-.1-.6.1-.7.2-.2.6-.1.8.1 1.5 2.1 2.8 4.2 4.1 6.3.2.3.1.6-.2.7-.1.1-.3.1-.4.1-.1 0-.2-.1-.3-.2z"/><g><path class="st169" d="M148.7 22.6c1.4 2.1 2.7 4.2 4 6.3.4.7.5 1.4.3 2.2 0 .1 0 .2-.1.2-.2.8-.6 1.4-1.2 1.8-.6.4-1.3.6-2 .4-.7-.1-1.2-.5-1.6-1.2-1.3-2.2-2.7-4.3-4.2-6.5-.1 0 4-3.4 4.8-3.2z"/><path class="st109" d="M149.6 34c-.8-.2-1.5-.6-1.9-1.4-1.3-2.2-2.7-4.3-4.2-6.5-.1-.2-.1-.4-.1-.5 0 0 4.1-2.7 4.6-3.2.1-.2.4-.4.8-.3.1 0 .3.1.3.2 1.4 2.1 2.7 4.2 4 6.3.5.8.6 1.7.4 2.6 0 .1 0 .2-.1.2-.2.9-.7 1.7-1.4 2.1-.8.5-1.6.7-2.4.5zm-5.2-8.2c1.4 2 2.8 4.1 4 6.2.3.5.8.8 1.4 1 .6.1 1.1 0 1.6-.3.5-.4.8-.8 1-1.5 0-.1 0-.2.1-.2.1-.7.1-1.2-.3-1.7-1.1-1.9-2.3-3.8-3.6-5.7-.1.2-.1.4-.2.6-.2.7-.5 1.6-.7 2.3-.2.2-3.3-.7-3.3-.7z"/><path class="st6" d="M144.7 22c.6-.5 1.3-.6 2.1-.5.8.1 1.4.5 1.9 1.2.4.6.6 1.4.4 2.1v.2c-.2.8-.5 1.4-1.2 1.8-.6.4-1.3.6-2.1.5-.7-.1-1.3-.5-1.8-1.1-.4-.6-.6-1.3-.5-2.1v-.2c.2-.9.6-1.5 1.2-1.9z"/><path class="st109" d="M145.8 27.8c-.8-.1-1.6-.6-2.1-1.3-.5-.7-.7-1.6-.6-2.5v-.2c.1-.9.6-1.7 1.3-2.3.7-.5 1.6-.8 2.5-.6.9.1 1.7.6 2.2 1.4.5.7.7 1.6.5 2.5v.2c-.2.9-.7 1.7-1.4 2.2-.7.6-1.6.8-2.4.6 0 .1 0 .1 0 0 0 .1 0 .1 0 0zm-1.7-3.9v.2c-.1.7 0 1.2.4 1.7s.8.8 1.5.9c.7.1 1.2 0 1.7-.4s.8-.8.9-1.5v-.2c.1-.7 0-1.2-.3-1.7-.4-.5-.8-.8-1.5-.9-.7-.1-1.2 0-1.7.4-.6.4-.9.8-1 1.5z"/><path class="st170" d="M152.7 31.8c-1.2-2.1-2.5-4.2-3.8-6.3"/><path class="st109" d="M152.3 32.1c-1.2-2.1-2.5-4.2-3.8-6.2-.2-.2-.1-.6.1-.7.2-.2.6-.1.7.1 1.3 2.1 2.6 4.2 3.8 6.3.1.2.1.6-.2.7-.1.1-.3.1-.4.1 0-.1-.1-.1-.2-.3z"/></g></g><g><path class="st169" d="M26.9 83.6c-1-1.2-2.1-2.5-3.1-3.8 0-.1 6.5-1.4 7.2-1.5.7-.1 1.4.1 2.1.5.7.4 1.1 1 1.3 1.7.2.7.1 1.4-.3 2-1.2 1.9-2.4 3.9-3.5 6-.4.7-.9 1.1-1.6 1.4-.7.2-7 2-7 2.1-4.3-3.6-8.6-7.3-12.7-11.2-.8-.4-2.9 1.1-3.1.4-.2-.8-3.8-3.3-3.8-3.3 0-.1 6.9-2.6 7.7-2.8.8-.3 1.5-.2 2.2.2 5 2.8 9.8 5.6 14.6 8.3z"/><path class="st109" d="M34.7 82.9c-1.2 1.9-2.4 3.9-3.5 5.9-.4.8-1 1.3-1.9 1.6-.8.2-7 2-7 2.1-.2.1-.4 0-.5-.1-4.3-3.5-8.5-7.2-12.6-11.1H9c-.1 0-.3.1-.5.1-.4.1-.9.3-1.3.4-.3.1-.6.2-1 0-.2-.1-.4-.3-.4-.5l-.1-.1c-.1-.1-.2-.3-.4-.4-.3-.3-.8-.7-1.3-1-.9-.7-1.8-1.3-1.8-1.3-.1-.2-.2-.4-.2-.6 0-.2.2-.4.4-.5 0-.1 6.9-2.6 7.6-2.8.9-.3 1.8-.2 2.7.3l12 6.9c-.4-.5-.9-1.1-1.3-1.6-.1-.1-.1-.3-.1-.5.1-.2.2-.3.4-.3 0-.1 6.5-1.4 7.2-1.5.9-.2 1.7.1 2.5.6s1.3 1.2 1.6 2c.3.9.1 1.7-.3 2.4zm-9.5 7.6c1.6-.5 3.4-1 3.7-1.1.6-.2 1-.6 1.4-1.1 1.1-2 2.3-4 3.5-6 .3-.6.4-1.1.2-1.6-.2-.6-.5-1-1.1-1.4-.6-.4-1.2-.5-1.7-.4-.6.1-4.7.9-6.4 1.3.8 1.1 1.7 2.1 2.5 3.1-.1.1-.3.2-.4.3.1-.1.3-.2.4-.3.2.2.2.5 0 .6-.2.2-.4.2-.7.1-4.8-2.7-9.7-5.5-14.5-8.2-.6-.4-1.2-.4-1.8-.2-.6.2-4.6 1.6-6.6 2.4.7.5 1.6 1.2 2.3 1.9.3.3.6.6.8.9H7c.2-.1.5-.2.8-.3.6-.2 1.2-.5 1.9-.2l.1.1c4 3.8 8.2 7.5 12.4 11 .6-.1 1.8-.5 3-.9z"/><path class="st6" d="M19.8 85.6c.8-1.5 1.5-2.9 2.4-4.4.4-.7 1-1.2 1.7-1.4.7-.2 1.5 0 2.2.4.7.4 1.2 1 1.4 1.7.2.7.2 1.4-.2 2.1-1.2 2.1-2.3 4.3-3.4 6.4-.3.7-.9 1.2-1.6 1.5-.7.3-1.5.3-2.2-.1-6.1-2.5-12-5.3-18-8-.8-.4-1.3-.9-1.5-1.7-.2-.8-.1-1.6.3-2.5.4-.8 1-1.4 1.7-1.7.9-.4 1.6-.3 2.4.1 4.9 2.5 9.8 5 14.8 7.6z"/><path class="st109" d="M27.6 84.3c-1.2 2.1-2.3 4.2-3.4 6.4-.4.8-1 1.4-1.9 1.8-.8.4-1.8.3-2.6-.1-6-2.7-11.9-5.4-17.9-8.1-.9-.4-1.5-1.1-1.8-2-.3-.9-.1-2 .4-3s1.2-1.7 2.1-2.1c.9-.4 1.8-.3 2.7.1 4.8 2.5 9.5 4.9 14.3 7.4l2.1-3.9c.5-.8 1.2-1.4 2-1.6.9-.2 1.8 0 2.6.5s1.4 1.2 1.6 2c.4 1 .3 1.8-.2 2.6zM1.2 81.9c.2.6.5 1.1 1.2 1.4 5.9 2.7 11.9 5.5 17.8 8.2.6.3 1.2.3 1.8.1.6-.3 1-.7 1.3-1.3 1.1-2.2 2.2-4.4 3.4-6.5.3-.6.4-1.1.2-1.7-.2-.6-.6-1-1.1-1.4-.6-.4-1.2-.5-1.8-.3-.6.1-1 .5-1.4 1.1-.8 1.4-1.6 2.9-2.4 4.4l-.3.3h-.4c-4.9-2.5-9.9-5-14.8-7.5-.7-.3-1.2-.3-1.8-.1-.6.3-1.1.7-1.4 1.4-.4.6-.5 1.3-.3 1.9z"/><path class="st170" d="M34.6 81.8c-2.3.4-4.7.8-7.1 1.4"/><path class="st109" d="M34.7 82.3c-2.3.4-4.7.8-7.1 1.4-.3.1-.6-.1-.7-.4-.1-.3.1-.5.4-.6 2.4-.5 4.7-1 7.1-1.4.3 0 .6.1.6.4v.4c0 .1-.1.2-.3.2z"/><path class="st169" d="M31.6 69.2c1.1.8 2.1 1.6 3.2 2.4-.8-1.5-1.5-3-2.2-4.5 0-.1 6.5-.5 7.3-.5.8 0 1.4.3 2 .8.6.5 1 1.2 1.1 1.9.1.7-.1 1.4-.5 1.9-1.6 1.9-3.1 3.9-4.6 6-.4.6-1 .9-1.7 1-2.4.3-4.7.7-7.1 1.1-3.8-4-7.4-8.2-11-12.5-.7-.5-3.5-.9-3.7-1.7-.1-.8 2.5-1.8 3-2.4-.1-2.4-.2-4.9-.1-7.4 2.6-.5 5.2-.8 7.8-1.1.8-.1 1.5.1 2.1.7.6.5.9 1.2 1 2 .1.8-.2 1.5-.7 2.2-1.2 1.5-2.4 3-3.6 4.6 1 .8 2 1.5 3 2.3-.7-1.5-1.4-3.1-2.1-4.7 2.5-.4 5-.6 7.5-.8.8 0 1.5.2 2.1.7.6.5 1 1.2 1.1 1.9.1.8-.1 1.4-.6 2-1.1 1.3-2.2 2.7-3.3 4.1z"/><path class="st109" d="M42.9 71.5c-1.6 1.9-3.1 3.9-4.5 5.9-.5.7-1.2 1.1-2 1.2-2.4.3-4.7.7-7.1 1.1-.2 0-.4 0-.5-.2-3.8-4-7.4-8.1-11-12.4-.2-.1-.8-.3-1.4-.5-.7-.2-1.4-.4-1.9-.8-.2-.2-.5-.4-.6-.8 0-.3.1-.6.2-.8.4-.6 1.1-.9 1.7-1.3.5-.2.9-.5 1.1-.7-.1-2.4-.1-4.7-.1-7.1 0-.3.2-.6.5-.6 2.6-.5 5.2-.8 7.8-1.1.9-.1 1.8.2 2.5.8.7.6 1.1 1.4 1.2 2.3.1.9-.2 1.8-.8 2.6-.3.3-.5.7-.8 1 1.8-.2 3.5-.4 5.2-.5.9-.1 1.8.2 2.5.9.7.6 1.2 1.4 1.2 2.3.1.9-.1 1.7-.7 2.4-.3.4-.6.7-.9 1.1 2-.2 4.8-.3 5.3-.3.9 0 1.7.3 2.4.9.7.6 1.1 1.4 1.3 2.2.1 1-.1 1.8-.6 2.4zM15.1 65c.3.2 1 .5 1.6.7.7.2 1.3.4 1.7.7l.1.1c3.4 4.2 7 8.4 10.7 12.3 2.3-.4 4.6-.8 6.8-1.1.6-.1 1.1-.3 1.4-.8 1.5-2.1 3-4.1 4.6-6 .4-.5.5-1 .4-1.6-.1-.6-.4-1.1-.9-1.5-.5-.4-1-.6-1.7-.6-.6 0-4.5.2-6.3.4l-.2.2c.6 1.2 1.2 2.5 1.8 3.7.1.2.1.5-.1.6-.2.1-.4.1-.6 0-1.1-.8-2.1-1.6-3.2-2.4-.1-.1-.2-.2-.2-.3 0-.1 0-.3.1-.4.3-.5.7-.9 1-1.4 0-.1-.1-.2-.1-.3-.1-.2-.1-.3 0-.5.1-.1.2-.2.4-.3 0 0 .2 0 .5-.1.5-.6 1-1.3 1.5-1.9.4-.5.6-1 .5-1.7-.1-.6-.3-1.1-.9-1.6-.5-.4-1-.6-1.7-.6l-6.3.6c-.1.1-.2.3-.4.4.5 1.2 1.1 2.4 1.6 3.6.1.2 0 .5-.1.6-.2.2-.5.2-.7 0-1-.8-2-1.5-3-2.3-.1-.1-.2-.2-.2-.4 0-.1 0-.3.1-.4.4-.5.7-.9 1.1-1.4-.1-.2-.1-.3-.2-.5s-.1-.3 0-.5.2-.3.4-.3c.3 0 .5-.1.8-.1.5-.6 1-1.3 1.5-1.9.5-.6.6-1.1.6-1.8-.1-.7-.3-1.2-.8-1.6-.5-.4-1.1-.6-1.7-.5-2.4.3-4.8.6-7.3 1 0 2.3 0 4.6.1 6.8 0 .1 0 .3-.1.4-.4.5-1 .8-1.6 1.2-.5.3-1.1.7-1.2.9.1.5.1.5.2.6zm18.3 4.9c-.2-.4-.4-.9-.6-1.3-.1.2-.3.4-.4.5.3.3.6.6 1 .8zm-1.4-.3c-.1-.1-.3-.2-.4-.3.1 0 .3.2.4.3zm-6.4-5.5c-.2-.4-.4-.8-.5-1.2-.1.2-.3.3-.4.5.3.2.6.4.9.7z"/><path class="st6" d="M24.2 70.4c1.1.7 2.2 1.5 3.3 2.2 1-1.5 2.1-3 3.2-4.5.5-.6 1.1-1 1.9-1 .8-.1 1.5.2 2.1.7.6.5 1 1.1 1.1 1.9.1.7 0 1.4-.5 2-1.6 2.1-3.1 4.3-4.5 6.5-.4.6-1 1-1.7 1.1-.8.1-1.5 0-2.2-.4-5.5-3.4-11-6.8-16.4-10.1-.7-.4-1.1-1.1-1.3-1.9-.1-.8 0-1.6.5-2.4 1.8-2.7 3.6-5.3 5.5-7.9.6-.7 1.2-1.2 2.1-1.3.8-.1 1.5.1 2.2.6.6.5 1 1.2 1.1 2 .1.8-.1 1.6-.7 2.3-1.2 1.6-2.4 3.3-3.6 5 1 .7 2.1 1.4 3.1 2.1 1.1-1.6 2.3-3.2 3.5-4.8.5-.7 1.2-1.1 2-1.2.8-.1 1.5.1 2.1.6.6.5 1 1.2 1.1 1.9.1.8-.1 1.5-.6 2.1-1.1 1.4-2.2 2.9-3.3 4.5z"/><path class="st109" d="M35.8 71.9c-1.6 2.1-3.1 4.2-4.5 6.5-.5.7-1.2 1.2-2.1 1.3-.9.2-1.8 0-2.6-.5-5.5-3.4-11-6.7-16.5-10.1-.8-.5-1.3-1.3-1.5-2.2-.2-1 .1-2 .6-2.8 1.8-2.7 3.6-5.4 5.6-7.9.6-.9 1.5-1.4 2.5-1.6.9-.2 1.8.1 2.6.7.7.6 1.2 1.4 1.3 2.3.1 1-.2 1.9-.8 2.7-1.1 1.5-2.2 3-3.2 4.5.7.5 1.5 1 2.2 1.5 1-1.5 2.1-2.9 3.2-4.4.6-.8 1.4-1.3 2.3-1.4.9-.1 1.8.1 2.5.7s1.2 1.4 1.3 2.3c.1.9-.1 1.8-.7 2.5-1 1.4-2 2.7-3 4.2.8.5 1.6 1.1 2.4 1.6.9-1.4 1.9-2.7 2.9-4.1.5-.7 1.3-1.2 2.2-1.2.9-.1 1.8.2 2.5.8.7.6 1.2 1.3 1.3 2.2.2.9 0 1.7-.5 2.4zM9.7 66.6c.1.7.4 1.2 1 1.5 5.5 3.4 10.9 6.8 16.4 10.2.6.4 1.1.5 1.8.3.6-.1 1.1-.4 1.4-.9 1.5-2.2 3-4.4 4.6-6.5.4-.5.5-1 .4-1.6-.1-.6-.4-1.1-.9-1.5-.5-.4-1.1-.6-1.7-.5-.6.1-1.1.3-1.5.9-1.1 1.5-2.2 2.9-3.2 4.4-.1.1-.2.2-.3.2-.1 0-.3 0-.4-.1-1.1-.7-2.2-1.5-3.3-2.2-.1-.1-.2-.2-.2-.3 0-.1 0-.3.1-.4 1.1-1.6 2.2-3.1 3.3-4.6.4-.6.6-1.1.5-1.7-.1-.6-.4-1.1-.9-1.6-.5-.4-1.1-.6-1.7-.5-.6.1-1.1.4-1.6 1-1.2 1.6-2.3 3.2-3.4 4.8-.1.1-.2.2-.4.2-.1 0-.3 0-.4-.1-1-.7-2.1-1.4-3.1-2.1-.1-.1-.2-.2-.2-.4 0-.1 0-.3.1-.4 1.2-1.7 2.3-3.4 3.6-5 .5-.6.6-1.2.5-1.9-.1-.7-.4-1.2-.9-1.6-.5-.4-1.1-.6-1.8-.4-.7.1-1.2.4-1.7 1.1-1.9 2.5-3.8 5.2-5.5 7.9-.6.5-.7 1.1-.6 1.8zm15 4.1c-.1-.1-.3-.2-.4-.3.1.1.2.2.4.3z"/><path class="st170" d="M43 69.8c-2.4 0-4.7.2-7.2.4"/><path class="st109" d="M43.1 70.3c-2.4 0-4.7.2-7.1.4-.3 0-.6-.2-.6-.5s.1-.5.4-.6c2.4-.2 4.8-.3 7.2-.4.3 0 .5.2.6.5 0 .1 0 .3-.1.4-.2.1-.3.2-.4.2z"/><path class="st170" d="M35.5 62.9c-2.5.1-4.9.4-7.4.7"/><path class="st109" d="M35.6 63.5c-2.4.1-4.9.4-7.4.7-.3 0-.6-.2-.6-.5s.2-.6.5-.6c2.5-.3 5-.5 7.4-.7.3 0 .5.2.6.5 0 .1 0 .3-.1.4-.1.1-.3.2-.4.2z"/><path class="st170" d="M28.2 56.7c-2.5.2-5.1.6-7.7 1"/><path class="st109" d="M28.3 57.3c-2.5.2-5.1.6-7.7 1-.3.1-.6-.2-.6-.5s.2-.6.5-.6c2.6-.4 5.1-.7 7.7-1 .3 0 .6.2.6.5 0 .1 0 .3-.1.4-.2.1-.3.2-.4.2z"/><path class="st170" d="M21.7 63.9c-1.8.3-3.6.7-5.4 1.1"/><path class="st109" d="M21.8 64.4c-1.8.3-3.6.7-5.4 1.1-.3.1-.6-.1-.6-.4 0-.3.2-.6.5-.7 1.8-.4 3.6-.8 5.4-1.1.3-.1.6.1.6.4 0 .1 0 .3-.1.4-.1.2-.3.3-.4.3z"/><g><path class="st170" d="M29.7 69.5c-1.8.2-3.6.5-5.5.9"/><path class="st109" d="M29.8 70c-1.8.2-3.6.5-5.5.9-.3.1-.6-.1-.6-.4-.1-.3.1-.6.4-.6 1.8-.3 3.7-.6 5.5-.9.3 0 .6.2.6.4 0 .1 0 .3-.1.4-.1.1-.2.2-.3.2z"/></g><g><path class="st169" d="M34 51.4c-.6.6-1.1 1.2-1.7 1.8-.2.3-.5.5-.9.6-.4.1-.7.2-1.1.2-.4 0-7.1.6-7.1.7 0 0-.7-5.8 2.4-3.9.3.2 2.1 2.1 2 1.7-.2-.4-.3-.7-.3-1.1 0-.4 0-.8.2-1.1.1-.4.3-.7.6-1l1.8-5.1c.3-.3.5-3.7.5-3.7 0-.1 7.5 0 7.8 0 .4 0 .8.1 1.1.3.4.2.7.4.9.7.2.3.4.6.5.9.1.4.1.7.1 1.1 0 .4-.1.8-.3 1.1-.1.4-.4.7-.6.9-.6.6-1.2 1.1-1.8 1.7 3.8 4 7.7 8.1 11.5 12.1.6.6.9 1.3.9 2s-.3 1.3-.7 1.8c-.5.5-1.1.7-1.8.7-.7-.1-7.1-.2-7.1-.2-2.4-3.9-4.7-8-6.9-12.2z"/><path class="st109" d="M50.2 63.4c-.6.6-1.3.9-2.1.9-.7-.1-7.1-.2-7.2-.2-.2 0-.4-.1-.5-.3-2.3-3.8-4.5-7.6-6.6-11.6-.4.4-.8.8-1.2 1.3-.3.3-.7.6-1.1.7-.4.2-.8.3-1.3.3-.4 0-7.1.6-7.1.7-.3 0-.5-.2-.6-.4 0 0-.1-.8-.1-1.7 0-.9.1-2 .8-2.8.6-.7 1.6-.8 2.6-.1.1.1.2.1.3.2.2.1.4.3.6.5 0-.3.1-.6.2-1s.3-.8.6-1.1c.6-1.7 1.2-3.3 1.8-5 0 0 0-.1.1-.1v-.1c0-.1.1-.2.1-.4.1-.3.1-.8.2-1.2.1-.9.2-1.7.2-1.7 0-.3.3-.6.6-.6 0-.1 7.5 0 7.8.1.5 0 .9.1 1.3.3.4.2.8.5 1.1.8.3.3.5.7.6 1.1.1.4.2.9.1 1.3 0 .4-.1.9-.3 1.3-.2.4-.4.8-.8 1.1-.5.4-1 .9-1.4 1.3 3.7 3.9 7.4 7.9 11.1 11.8.7.7 1 1.5 1 2.4.1 1-.2 1.7-.8 2.2zm-6-.2c1.7 0 3.5.1 3.8.1.6 0 1.1-.2 1.5-.6.4-.4.6-.9.6-1.5 0-.5-.2-1-.7-1.6-3.9-4-7.7-8-11.6-12.1-.1-.1-.2-.2-.1-.4 0-.1.1-.3.2-.4.6-.6 1.2-1.2 1.8-1.7.2-.2.4-.4.5-.7.1-.3.2-.6.2-.9 0-.3 0-.6-.1-.9-.1-.3-.2-.5-.4-.7-.2-.2-.5-.4-.8-.6-.3-.1-.6-.2-.9-.2-.3 0-5.5-.1-7.3 0-.1.8-.2 2.3-.4 3 0 .1 0 .2-.1.4-.6 1.7-1.2 3.3-1.8 5 0 .1-.1.2-.1.2-.2.2-.3.5-.4.8-.1.3-.2.6-.1.9 0 .3.1.6.2.9v.2c0 .1 0 .3-.1.5-.2.2-.4.2-.5.2h-.2c-.1 0-.1-.1-.1-.1-.1 0-.1-.1-.2-.2-.4-.4-1.1-1.1-1.5-1.4l-.1-.1c-.9-.5-1-.3-1.2-.1-.3.3-.5 1.2-.5 2v1c1.6-.2 6.3-.6 6.6-.6.3 0 .6-.1.9-.2.3-.1.5-.3.7-.5.6-.6 1.1-1.2 1.7-1.8.1.1.3.2.4.4-.1-.1-.3-.2-.4-.4.1-.1.3-.2.5-.2s.3.1.4.3c2.1 4.1 4.3 8.1 6.7 12 .4-.1 1.7-.1 2.9 0z"/><path class="st6" d="M26.3 51.8c-.6.6-1.1 1.3-1.7 2-.2.3-.5.5-.9.7-.4.2-.7.3-1.1.3-.4.1-.8 0-1.1 0-.4-.1-.7-.2-.9-.4-.3-.3-.6-.6-.7-.9-.2-.4-.3-.7-.3-1.1 0-.4 0-.8.1-1.2.1-.4.3-.7.6-1 2.6-3 5.3-5.9 8-8.7.3-.3.6-.5 1-.6.4-.2.8-.2 1.2-.2.4 0 .8.1 1.2.2.4.1.7.4 1 .7.2.2.4.5.5.9.1.4.2.7.1 1.1 0 .4-.1.8-.2 1.1-.1.4-.4.7-.6 1-.6.6-1.2 1.2-1.8 1.9 4 3.9 8 7.8 12 11.6.6.6.9 1.2.9 1.9s-.2 1.3-.7 1.9c-.5.5-1.1.8-1.8.9-.7.1-1.4-.2-2-.7-4.4-4-8.6-7.7-12.8-11.4z"/><path class="st109" d="M43.1 63.1c-.6.6-1.3 1-2.1 1-.9.1-1.7-.2-2.4-.9-4.1-3.6-8.1-7.1-12.2-10.7-.4.5-.9 1-1.3 1.5-.3.4-.7.6-1.1.8-.4.2-.8.3-1.3.4-.4.1-.9 0-1.3 0-.4-.1-.8-.3-1.2-.5-.4-.3-.7-.7-.9-1.1-.2-.4-.3-.9-.4-1.4 0-.5 0-.9.2-1.4.1-.5.4-.9.7-1.3 2.6-3 5.3-6 8.1-8.7.3-.3.7-.6 1.2-.8.4-.2.9-.3 1.4-.3.5 0 .9.1 1.4.2.4.2.8.4 1.2.8.3.3.5.7.6 1.1.1.4.2.9.2 1.3s-.1.9-.3 1.3c-.2.4-.4.8-.8 1.2-.5.5-1 1-1.4 1.5L43 58.4c.7.7 1.1 1.5 1.1 2.3-.1 1.1-.4 1.8-1 2.4zM26.3 51.3c.1 0 .3 0 .4.1 4.2 3.7 8.3 7.4 12.5 11.1.6.5 1 .7 1.6.6.6-.1 1.1-.3 1.5-.7.4-.5.6-1 .6-1.5 0-.6-.2-1-.7-1.6-4-3.9-8-7.7-12.1-11.6-.1-.1-.1-.2-.1-.4 0-.1.1-.3.2-.4.6-.6 1.2-1.3 1.8-1.9.2-.2.4-.4.5-.8.1-.3.2-.6.2-1 0-.3 0-.6-.1-.9-.1-.3-.2-.5-.4-.7-.2-.2-.5-.4-.8-.5-.3-.1-.6-.2-1-.2-.3 0-.6.1-1 .2-.3.1-.6.3-.8.5-2.8 2.8-5.5 5.7-8 8.7-.2.2-.3.5-.4.8-.1.3-.1.6-.1 1 0 .3.1.6.2.9.1.3.3.6.6.8.2.2.4.3.7.3.3.1.6.1.9 0 .3 0 .6-.1 1-.3.3-.1.5-.3.7-.5.6-.7 1.1-1.3 1.7-2 .1.1.3.2.4.4-.1-.1-.3-.2-.4-.4.1.1.3 0 .4 0z"/><path class="st170" d="M38.2 47.2c-2.5 0-5.1 0-7.7.1"/><path class="st109" d="M38.2 47.8c-2.5 0-5.1 0-7.7.1-.3 0-.5-.2-.5-.5s.3-.6.6-.6c2.6-.1 5.2-.1 7.7-.1.3 0 .5.3.5.5 0 .1-.1.3-.2.4-.1.1-.3.2-.4.2z"/><g><path class="st170" d="M50.2 60c-2.4-.2-4.7-.4-7.2-.4"/><path class="st109" d="M50.2 60.5c-2.4-.2-4.7-.3-7.2-.4-.3 0-.5-.2-.5-.5s.2-.5.5-.5c2.4.1 4.8.2 7.2.4.3 0 .5.3.5.5 0 .1 0 .3-.1.3-.1.2-.2.2-.4.2z"/></g></g><g><path class="st169" d="M38.7 39.2c.1-.8-2.8-3.8-2.1-4.4 2.6.1 5.2.3 7.8.5.8.1 1.4.4 1.9 1.1 1.1 1.4 2.1 2.7 3.2 4.1.5.6.7 1.3.6 2.1-.1.8-.4 1.4-1.1 1.9-.6.5-1.3.7-2.1.6-2.6-.3-5.3-.5-8-.6.2-2.1.6-4.3.9-6.5-.4-.5-1.2 2-1.1 1.2z"/><path class="st109" d="M49.4 44.9c-.7.6-1.5.8-2.4.7-2.6-.3-5.3-.5-8-.5-.2 0-.4-.1-.5-.3.3-2.1.6-4.2.9-6.4h-.1c-.1 0-.3-.1-.5-.1-.4 0 .9 2 .4 1.9-.3-.1-.6-.1-.9-.4-.1-.1-.2-.4-.2-.6v-.1c0-.1-.1-.2-.2-.4-.2-.3-.5-.7-.7-1.1-.6-.8-1.2-1.6-1.3-2.4 0-.2 0-.6.3-.8.1-.1.3-.2.4-.1 2.6.1 5.2.3 7.8.5.9.1 1.7.5 2.3 1.3 1.1 1.4 2.1 2.7 3.2 4.1.6.7.8 1.6.7 2.5-.1.9-.5 1.7-1.2 2.2zm-9.9-5.7c.2 0 .5.1.8.1.6.1-.5-2 .1-1.5l.1.1c-.5 2.1-.8 4.1-1.1 6.2 2.6.1 5.1.3 7.7.6.7.1 1.2-.1 1.7-.5s.8-.9.9-1.6c.1-.6-.1-1.2-.5-1.7-1.1-1.4-2.1-2.7-3.2-4.1-.4-.5-.9-.8-1.6-.9-2.3-.2-4.7-.4-7.1-.5.1.2.2.3.3.5.4.6.9 1.4 1.3 2 .2.4.4.7.5 1.1-.1.1 0 .1.1.2zm-.4 0h-.3.3z"/><path class="st6" d="M33.2 37.8c.1-.8.5-1.5 1.1-2.1.7-.6 1.4-.9 2.2-.9.8 0 1.5.3 2 1 1.1 1.3 2.2 2.6 3.3 4 .5.6.7 1.3.7 2.1-.1.8-.4 1.4-1 2-.6.5-1.3.8-2.1.8s-1.5-.3-2-.9c-1.2-1.3-2.3-2.5-3.5-3.8-.5-.7-.8-1.4-.7-2.2z"/><path class="st109" d="M41.9 44.3c-.7.6-1.5.9-2.5.9-.9 0-1.8-.4-2.4-1.1-1.2-1.3-2.4-2.5-3.5-3.8-.6-.7-.9-1.6-.8-2.5.1-1 .6-1.8 1.3-2.5.8-.7 1.7-1.1 2.7-1 1 0 1.8.4 2.4 1.1 1.1 1.3 2.2 2.7 3.3 4 .6.7.9 1.6.8 2.5-.1.9-.6 1.7-1.3 2.4zm-7.6-4.8c1.2 1.3 2.3 2.5 3.5 3.8.5.5 1 .7 1.6.7.7 0 1.2-.2 1.7-.6.5-.5.8-1 .9-1.6.1-.7-.1-1.2-.5-1.7-1.1-1.3-2.2-2.6-3.4-4-.4-.5-.9-.8-1.6-.8-.7 0-1.2.2-1.8.7-.6.5-.8 1-.9 1.7-.1.8.1 1.3.5 1.8z"/><path class="st170" d="M49.8 41c-2.5-.3-5-.6-7.5-.8"/><path class="st109" d="M49.8 41.6c-2.5-.3-5-.6-7.5-.8-.3 0-.5-.3-.5-.6s.3-.5.6-.5c2.6.2 5.1.4 7.5.8.3 0 .5.3.5.6 0 .1-.1.3-.2.3-.2.1-.3.2-.4.2z"/></g><g><path class="st169" d="M54.4 46.7c-.5-.7 2.7.8 2.8.1.1-.7.4-1.3 1-1.7.5-.4 1-.5 1.4-.4.5 0 .9.2 1.4.3.4.1-2.4-.5-2-.5.4 0 .7-.1 1.1-.3.4-.2.6-.6.6-1 0-.5 0-.9-.3-1.3s-.6-.7-.9-.8c-.3-.2 2.5.4 2.2.4h-1c-.3.1-.7.2-1.1.3-.8.2-1.7.3-2.5.4-.9 0-1.7-.1-2.5-.3-.8-.3-7-1.1-7.1-1 0 0 3.4-1 2.9-1.8-.7-.9-1.2-1.9-1.5-2.9-.3-1-4-2.4-3.8-3.3.2-1 4.2-1.4 4.8-2.3.6-.9 1.4-1.6 2.4-2.3.5-.4-1.5-2.4-1.5-2.4 0-.1 6.9 1.2 7.6 1.5.7.2 1.3.6 1.9 1.1.3.2.5.5.7.8.4.7.5 1.4.3 2.2-.2.8-.6 1.4-1.3 1.8-.4.2-.9.4-1.4.4-.5 0-3-.5-3-.5-.1 0-.3.1-.3.2-.4.2-.6.6-.6 1s.1.9.3 1.2c.2.3.4.4.7.5.3.1.5.1.9.2h.9c.3-.1.6-.1.9-.2.2 0 .3 0 .5-.1 1.1-.2-1.8-1.4-1.8-1.4s6.5 1.4 7.2 1.8c.7.3 1.4.7 2 1.3.6.6 1.2 1.3 1.7 2.2.5.9.9 1.8 1.1 2.8.2 1 .2 1.9.1 2.8-.1.9-.4 1.7-.8 2.4s-1 1.3-1.7 1.8c-.6.4-1.3.8-2.1 1-.8.2-1.5.4-2.3.3-.7-.1-7.9-1.5-8-1.4-.2 0 .6-2.2.1-2.9z"/><path class="st109" d="M64.6 51.1c-.8.3-1.6.4-2.5.4-.3 0-.9-.1-1.6-.3-.8-.2-1.7-.3-2.7-.5-1.9-.4-3.7-.7-3.7-.6-.2 0-.3-.1-.4-.3-.1-.1-.1-.3 0-.5 0 0 .2-.5.3-1.1.2-.6.1-1.2 0-1.3-.1-.1-.1-.2-.2-.3-.1-.2 0-.5.2-.6.2-.2.4-.1.5-.1.1 0 .2 0 .3.1.2.1.5.1.8.2.4.1.8.2 1.1.2.1-.7.5-1.3 1.1-1.8.2-.1.4-.3.6-.4 0-.1.1-.2.2-.2.2-.1.2-.1.3-.1h.1c.2 0 .5-.1.8-.3.3-.2.4-.4.4-.7 0-.3 0-.6-.2-.8h-.2c-.9.2-1.7.4-2.6.4-.9 0-1.8-.1-2.6-.3-.3-.1-2.1-.4-3.8-.6-1.7-.2-3.2-.4-3.2-.4-.3 0-.5-.2-.5-.5s.1-.5.4-.6c0 0 .4-.1 1-.3.5-.2 1.2-.5 1.4-.7-.7-.9-1.2-1.9-1.5-2.9v-.1c-.2-.3-.9-.8-1.6-1.2-.7-.5-1.5-.9-1.9-1.4-.2-.2-.3-.5-.2-.8.1-.4.3-.6.5-.8.6-.4 1.5-.7 2.3-.9.8-.2 1.7-.5 2-.7.1 0 .1-.1.1-.1.6-.9 1.4-1.6 2.3-2.3 0-.1-.1-.2-.2-.3-.4-.6-1.2-1.4-1.2-1.4-.2-.2-.2-.4-.1-.6.1-.2.4-.3.6-.3 0 0 6.9 1.2 7.7 1.5.8.2 1.5.6 2.1 1.1.3.3.6.6.8.9.5.8.6 1.7.4 2.6-.2.9-.7 1.7-1.5 2.1-.5.3-1 .5-1.7.5-.4 0-1.1-.1-1.8-.3-.5-.1-1-.2-1.2-.2h-.1c-.2.2-.3.3-.4.6 0 .3 0 .6.2.8.1.2.2.3.4.3.2.1.5.1.7.1h.8c.2 0 .4-.1.6-.1-.1 0-.2-.1-.3-.1-.4-.2-.9-.4-.9-.4-.2-.1-.4-.4-.3-.6.1-.3.3-.4.6-.4 0 0 1.7.3 3.4.7 1.7.4 3.5.9 3.9 1.1.8.3 1.5.8 2.1 1.4.6.6 1.2 1.4 1.8 2.3.6 1 .9 2 1.1 3 .2 1 .2 2 .1 3s-.4 1.8-.9 2.6-1.1 1.4-1.9 2c-.6.7-1.3 1.1-2.1 1.3zm-4.1-.9c.8.2 1.4.3 1.5.3.7 0 1.5-.1 2.2-.3.7-.2 1.4-.6 2-1 .7-.5 1.2-1 1.6-1.7.4-.7.7-1.4.8-2.3.1-.8.1-1.7-.1-2.6-.2-.9-.5-1.8-1-2.6-.5-.9-1.1-1.6-1.6-2.1s-1.2-.9-1.8-1.2c-.3-.1-2.1-.6-3.8-1-.3-.1-.5-.1-.7-.2v.3c0 .2-.2.4-.3.5-.1.1-.3.1-.4.1-.1 0-.3 0-.4.1-.3.1-.6.1-.9.2-.4.1-.7.1-1.1 0-.3 0-.7-.1-1-.2-.4-.1-.7-.4-.9-.7-.3-.4-.4-1-.4-1.6 0-.6.4-1.1.8-1.4l.1-.1c.1-.1.3-.2.6-.2h.1s.6.1 1.3.3c.7.1 1.5.3 1.6.3.5 0 .9-.2 1.2-.3.6-.4.9-.8 1-1.5.1-.7.1-1.2-.3-1.8-.2-.2-.3-.5-.6-.7-.5-.4-1.1-.8-1.7-1-.3-.1-2.2-.5-4-.9-.7-.1-1.4-.3-2-.4.1.1.2.3.3.4.2.4.4.6.4 1.1 0 .2-.1.4-.3.5-1 .6-1.7 1.4-2.3 2.2-.1.1-.2.3-.4.3-.6.4-1.4.6-2.3.9-.8.2-1.7.5-1.9.8.2.3.9.8 1.6 1.2.7.5 1.5.9 1.9 1.5.1.1.2.3.2.4.3.9.7 1.8 1.4 2.7.2.2.2.6.1.9-.1.2-.3.4-.4.5-.2.2-.5.3-.7.4 1.9.2 4.4.6 5 .8.7.2 1.5.3 2.3.2.7 0 1.4-.1 2-.3v-.1c0-.1-.1-.2-.1-.4s.1-.3.2-.4c.2-.1.2-.1.3-.1h.4c.2 0 .4.1.7.1.5.1 1 .2 1.2.3.1 0 .1 0 .2.1 0 0 .1 0 .2.2l.1.2c.1.1 0 .5-.2.6l-.2.1h-.8c.2.4.2.9.2 1.3s-.2.8-.5 1.1c.1 0 .3.1.4.1h.1l.2.2c.1.1.1.3.1.4 0 .1-.1.2-.1.2l-.1.1-.2.1h-.4c-.1 0-.3-.1-.4-.1-.3-.1-.6-.1-.9-.2-.3 0-.6.1-1 .4-.4.3-.7.7-.8 1.3 0 .2-.1.3-.3.4-.3.2-.6.2-.8.1-.3 0-.5-.1-.8-.2-.2-.1-.5-.1-.7-.2.1.5 0 1-.1 1.4-.1.2-.1.4-.2.6 1.1.8 3.9 1.3 5.6 1.6z"/><path class="st6" d="M50.6 47.7c-.5-.7-.8-1.3-.7-2.1.1-.7.4-1.3 1-1.7.5-.4 1-.6 1.5-.5.5 0 1 .1 1.4.2.4.1.8.2 1.1.2.4 0 .7-.1 1.1-.4.4-.3.6-.6.6-1.1 0-.5-.1-.9-.3-1.3-.3-.4-.6-.6-.9-.8-.3-.2-.6-.3-.9-.3-.3 0-.6 0-1 .1s-.7.2-1.1.4c-.9.3-1.7.5-2.6.5-.9.1-1.7.1-2.6-.1-.8-.2-1.6-.4-2.4-.9-.7-.4-1.4-1-2-1.7-.7-.9-1.3-1.8-1.6-2.8-.3-1-.4-2-.3-2.9.1-1 .5-1.9 1.1-2.8.6-.9 1.4-1.7 2.4-2.5.6-.4 1.2-.7 1.9-1 .7-.3 1.4-.4 2.2-.5.7-.1 1.5 0 2.2.2.7.2 1.4.5 2 1 .3.2.5.5.7.8.4.7.6 1.4.4 2.2-.2.8-.6 1.4-1.3 1.9-.4.3-.9.4-1.5.5-.6.1-1.1 0-1.6-.3-.4-.2-.7-.3-1.1-.2-.3.1-.6.2-.8.3-.4.3-.6.6-.6 1.1 0 .5.1.9.3 1.2.2.3.4.4.7.5.3.1.6.1.9.1.3 0 .6 0 1-.1.3-.1.6-.1.9-.2.2 0 .3-.1.5-.1 1.1-.2 2.2-.4 3.1-.4.9 0 1.8.1 2.5.4.8.3 1.4.7 2.1 1.2.6.5 1.2 1.3 1.8 2.1.6.9 1 1.8 1.2 2.8.2 1 .2 1.9.1 2.8-.1.9-.4 1.8-.8 2.5-.4.8-1 1.4-1.8 2-.6.5-1.4.9-2.1 1.2-.8.3-1.6.5-2.4.5-.8 0-1.6-.1-2.4-.4-.6-.4-1.3-.9-1.9-1.6z"/><path class="st109" d="M57.7 49.6c-.8.3-1.7.5-2.5.5-.9 0-1.7-.1-2.6-.4-.9-.3-1.7-.9-2.3-1.7-.6-.7-.9-1.6-.8-2.5.1-.8.5-1.6 1.1-2.1.6-.4 1.2-.7 1.8-.7.5 0 1 .1 1.6.2.3.1.7.2 1 .2.2 0 .5-.1.8-.3.3-.2.4-.4.4-.7 0-.3 0-.6-.2-.9l-.7-.7c-.2-.1-.5-.2-.7-.2-.2 0-.5 0-.8.1-.3.1-.7.2-1.1.4-.9.3-1.8.5-2.7.6-.9.1-1.8.1-2.7-.1-.9-.2-1.7-.5-2.5-.9s-1.5-1.1-2.2-1.8c-.8-.9-1.3-1.9-1.7-3-.3-1-.4-2.1-.3-3.1.1-1 .5-2.1 1.2-3 .6-1 1.5-1.9 2.6-2.7.6-.4 1.3-.8 2-1.1.7-.3 1.5-.5 2.3-.5.8-.1 1.6 0 2.4.2.8.2 1.5.5 2.2 1 .4.2.7.5.9.9.5.8.7 1.7.5 2.6-.2.9-.7 1.7-1.5 2.2-.5.3-1.1.5-1.7.6-.7.1-1.4 0-2-.4-.3-.2-.5-.2-.7-.1-.3.1-.5.2-.6.2-.2.2-.3.3-.4.7 0 .3 0 .6.2.8.1.2.3.3.4.3.2.1.5.1.7.1.3 0 .6 0 .8-.1.3-.1.6-.1.9-.2.2 0 .3-.1.5-.1 1.2-.2 2.2-.4 3.2-.4s1.9.1 2.7.4c.8.3 1.6.7 2.2 1.3.7.6 1.3 1.3 1.9 2.3.6.9 1 1.9 1.2 3 .2 1 .3 2 .1 3-.1 1-.4 1.9-.9 2.7-.5.8-1.1 1.5-1.9 2.1-.6.6-1.3 1-2.1 1.3zM51 47.4c.5.7 1.1 1.1 1.8 1.3.7.3 1.4.4 2.2.3.8 0 1.5-.2 2.2-.5.7-.3 1.4-.7 2-1.1.7-.5 1.2-1.1 1.6-1.8.4-.7.6-1.5.8-2.3.1-.8.1-1.7-.1-2.6-.2-.9-.5-1.7-1.1-2.6-.6-.8-1.1-1.5-1.7-2-.6-.5-1.2-.9-1.9-1.1-.7-.2-1.5-.3-2.3-.3-.9 0-1.9.1-3 .4-.2 0-.3.1-.5.1-.3.1-.6.1-.9.2-.4.1-.7.1-1.1.1-.4 0-.7 0-1-.1-.4-.1-.7-.4-1-.7-.3-.4-.5-1-.4-1.6 0-.6.3-1.1.8-1.5.3-.2.6-.3 1-.4.5-.1 1 0 1.4.2.4.2.8.3 1.3.2.5-.1.9-.2 1.2-.4.6-.4.9-.9 1-1.5.1-.7 0-1.2-.3-1.8l-.6-.6c-.6-.4-1.2-.7-1.8-.9-.7-.2-1.3-.2-2-.2-.7.1-1.4.2-2 .5-.7.2-1.2.5-1.7.9-1 .7-1.7 1.5-2.3 2.3-.5.8-.9 1.7-1 2.6-.1.9-.1 1.8.2 2.7.3.9.8 1.8 1.5 2.6.6.7 1.2 1.2 1.9 1.6.7.4 1.4.7 2.2.8.8.1 1.6.2 2.4.1.8-.1 1.7-.3 2.5-.5.4-.2.8-.3 1.2-.4.4-.1.8-.1 1.2-.1.4 0 .8.2 1.1.4.4.2.7.5 1 1 .3.5.5 1.1.4 1.6-.1.6-.3 1.1-.8 1.4-.4.3-.9.5-1.4.5-.4 0-.8-.1-1.2-.2-.4-.1-.9-.2-1.3-.2-.3 0-.7.1-1.1.4-.5.4-.7.8-.8 1.4-.2.7 0 1.2.4 1.8z"/><path class="st170" d="M67.1 49.2c-2.2-.7-4.5-1.2-6.9-1.8"/><path class="st109" d="M67 49.7c-2.2-.7-4.5-1.2-6.9-1.8-.3-.1-.5-.3-.4-.6 0-.3.3-.5.6-.4 2.3.5 4.6 1.1 6.9 1.8.3.1.4.4.4.6 0 .1-.1.2-.2.3-.1.1-.2.1-.4.1z"/><g><path class="st170" d="M58 33.6c-2.4-.5-4.9-1-7.5-1.4"/><path class="st109" d="M57.8 34.2c-2.4-.5-4.9-1-7.5-1.4-.3 0-.5-.3-.4-.6.1-.3.3-.5.6-.5 2.5.4 5 .9 7.5 1.4.3.1.5.4.4.6 0 .1-.1.3-.2.3-.1.2-.2.2-.4.2z"/></g></g></g></g></svg>